<?xml version="1.0" encoding="UTF-8"?>
<svg id="Layer_2" data-name="Layer 2" xmlns="http://www.w3.org/2000/svg" viewBox="0 0 3054.32 588.41">
  <defs>
    <style>
      .cls-1 {
        fill: #004766;
      }

      .cls-2 {
        fill: #707070;
      }

      .cls-3 {
        fill: #999;
      }
    </style>
  </defs>
  <g id="Layer_2-2" data-name="Layer 2">
    <g>
      <g>
        <polygon class="cls-1" points="339.08 0 0 588.41 538 588.41 503.35 528.43 325.03 528.43 489.41 261.3 453.08 198.12 257.29 528.62 104.99 528.62 341.48 123.02 391.03 194.01 420.89 142.13 339.08 0"/>
        <polygon class="cls-3" points="477.22 405.13 572.19 405.13 677.65 588.41 608.35 588.41 538 464.53 442.57 464.53 477.22 405.13"/>
      </g>
      <g>
        <g>
          <path class="cls-1" d="M905.62,255.33c-8.05,0-15.29-1.35-21.73-4.04-6.44-2.69-11.9-6.55-16.38-11.57-4.49-5.02-7.93-11.15-10.34-18.38-2.41-7.23-3.61-15.36-3.61-24.38s1.2-17.14,3.61-24.34c2.41-7.2,5.86-13.32,10.34-18.34,4.49-5.02,9.95-8.88,16.38-11.57,6.43-2.69,13.68-4.04,21.73-4.04,6.56,0,12.69,1.04,18.38,3.11,5.69,2.08,10.66,4.96,14.92,8.65,4.26,3.69,7.69,8.08,10.31,13.15s4.13,10.64,4.54,16.69h-22.61c-.56-3.18-1.59-6.08-3.08-8.69-1.49-2.61-3.35-4.85-5.58-6.69-2.23-1.85-4.78-3.27-7.65-4.27-2.87-1-5.95-1.5-9.23-1.5-4.36,0-8.28.87-11.77,2.61s-6.46,4.26-8.92,7.54c-2.46,3.28-4.34,7.26-5.65,11.92-1.31,4.67-1.96,9.92-1.96,15.77s.65,11.11,1.96,15.8c1.31,4.69,3.19,8.67,5.65,11.92,2.46,3.26,5.43,5.77,8.92,7.54s7.43,2.65,11.84,2.65c3.33,0,6.43-.47,9.31-1.42,2.87-.95,5.41-2.29,7.61-4.04,2.2-1.74,4.05-3.85,5.54-6.31,1.49-2.46,2.51-5.23,3.08-8.31h22.61c-.46,6-1.99,11.49-4.58,16.46-2.59,4.97-6,9.24-10.23,12.81-4.23,3.56-9.19,6.33-14.88,8.31-5.69,1.97-11.87,2.96-18.53,2.96Z"/>
          <path class="cls-1" d="M1093.26,226.02h-38.99l-8.54,26.46h-23.3l38.53-110.98h27.3l38.53,110.98h-25.15l-8.38-26.46ZM1059.27,208.1h29.07l-13.77-43.53h-1.38l-13.92,43.53Z"/>
          <path class="cls-1" d="M1247.14,141.5c5.69,0,10.89.92,15.61,2.77,4.72,1.85,8.77,4.44,12.15,7.77,3.38,3.33,6.01,7.37,7.88,12.11,1.87,4.74,2.81,9.99,2.81,15.73s-.96,10.88-2.88,15.57c-1.92,4.69-4.64,8.72-8.15,12.07-3.51,3.36-7.69,5.95-12.54,7.77-4.85,1.82-10.19,2.73-16.04,2.73h-21.92v34.46h-23.23v-110.98h46.3ZM1224.07,199.18h16.84c6.72,0,11.91-1.64,15.57-4.92,3.66-3.28,5.5-8.05,5.5-14.31s-1.82-11.18-5.46-14.46c-3.64-3.28-8.82-4.92-15.54-4.92h-16.92v38.61Z"/>
          <path class="cls-1" d="M1362.1,252.48v-110.98h23.23v110.98h-23.23Z"/>
          <path class="cls-1" d="M1494.3,252.48v-91.14h-33.3v-19.84h89.83v19.84h-33.3v91.14h-23.23Z"/>
          <path class="cls-1" d="M1689.4,226.02h-38.99l-8.54,26.46h-23.3l38.53-110.98h27.3l38.53,110.98h-25.15l-8.38-26.46ZM1655.41,208.1h29.07l-13.77-43.53h-1.38l-13.92,43.53Z"/>
          <path class="cls-1" d="M1869.58,252.48h-72.6v-110.98h23.23v90.75h49.38v20.23Z"/>
          <path class="cls-1" d="M2114.12,252.48h-72.6v-110.98h23.23v90.75h49.38v20.23Z"/>
          <path class="cls-1" d="M2263.85,252.48h-73.53v-110.98h73.53v19.84h-50.3v25.92h47.45v18.38h-47.45v27h50.3v19.84Z"/>
          <path class="cls-1" d="M2406.35,226.02h-38.99l-8.54,26.46h-23.3l38.53-110.98h27.3l38.53,110.98h-25.15l-8.38-26.46ZM2372.35,208.1h29.07l-13.77-43.53h-1.38l-13.92,43.53Z"/>
          <path class="cls-1" d="M2531.39,221.64c.26,2.26,1,4.29,2.23,6.11,1.23,1.82,2.86,3.37,4.88,4.65,2.03,1.28,4.4,2.27,7.11,2.96,2.72.69,5.72,1.04,9,1.04,3.02,0,5.79-.35,8.31-1.04,2.51-.69,4.68-1.67,6.5-2.92,1.82-1.26,3.24-2.76,4.27-4.5,1.03-1.74,1.54-3.66,1.54-5.77,0-1.74-.36-3.33-1.08-4.77-.72-1.44-1.85-2.72-3.38-3.85-1.54-1.13-3.53-2.14-5.96-3.04-2.44-.9-5.35-1.7-8.73-2.42l-14.46-3.08c-20.1-4.2-30.15-14.77-30.15-31.69,0-5.23,1.01-9.97,3.04-14.23,2.03-4.26,4.88-7.91,8.58-10.96,3.69-3.05,8.15-5.4,13.38-7.04,5.23-1.64,11.05-2.46,17.46-2.46s11.72.82,16.84,2.46c5.13,1.64,9.56,3.93,13.3,6.88,3.74,2.95,6.69,6.47,8.84,10.58,2.15,4.1,3.31,8.61,3.46,13.54h-21.84c-.26-2.2-.95-4.2-2.08-6-1.13-1.79-2.58-3.33-4.34-4.61-1.77-1.28-3.85-2.27-6.23-2.96-2.39-.69-4.99-1.04-7.81-1.04s-5.56.32-7.92.96c-2.36.64-4.38,1.56-6.08,2.77-1.69,1.21-3,2.67-3.92,4.38-.92,1.72-1.38,3.63-1.38,5.73,0,3.44,1.42,6.2,4.27,8.31,2.84,2.1,7.52,3.85,14.04,5.23l13.38,2.85c5.59,1.18,10.39,2.68,14.42,4.5,4.02,1.82,7.33,4.01,9.92,6.57,2.59,2.57,4.5,5.54,5.73,8.92,1.23,3.38,1.85,7.23,1.85,11.54,0,5.59-1.04,10.61-3.12,15.07-2.08,4.46-5.06,8.24-8.96,11.34-3.9,3.1-8.61,5.49-14.15,7.15-5.54,1.67-11.79,2.5-18.77,2.5-6.61,0-12.61-.78-18-2.35-5.38-1.56-10-3.81-13.84-6.73s-6.86-6.46-9.04-10.61c-2.18-4.15-3.37-8.82-3.58-14h22.46Z"/>
          <path class="cls-1" d="M2675.42,252.48v-110.98h23.23v110.98h-23.23Z"/>
          <path class="cls-1" d="M2780.69,252.48v-110.98h19.38l51.07,69.14h1.38v-69.14h22.23v110.98h-19.23l-51.22-69.45h-1.38v69.45h-22.23Z"/>
          <path class="cls-1" d="M3050.9,227.25c-2.28,5.95-5.55,11-9.81,15.15-4.26,4.15-9.42,7.34-15.5,9.57-6.08,2.23-12.91,3.35-20.5,3.35-8.26,0-15.66-1.35-22.23-4.04-6.56-2.69-12.14-6.55-16.73-11.57-4.59-5.02-8.11-11.15-10.58-18.38-2.46-7.23-3.69-15.38-3.69-24.46s1.23-16.98,3.69-24.19c2.46-7.2,5.97-13.32,10.54-18.34,4.56-5.02,10.09-8.89,16.57-11.61,6.49-2.72,13.78-4.08,21.88-4.08,6.56,0,12.64.91,18.23,2.73s10.51,4.4,14.77,7.73c4.26,3.33,7.74,7.36,10.46,12.07,2.72,4.72,4.49,9.95,5.31,15.69h-23.07c-1.74-5.64-4.83-10.01-9.27-13.11-4.44-3.1-9.91-4.65-16.42-4.65-4.46,0-8.49.86-12.08,2.58-3.59,1.72-6.63,4.19-9.11,7.42-2.49,3.23-4.4,7.17-5.73,11.8-1.33,4.64-2,9.88-2,15.73s.69,11.28,2.08,16c1.38,4.72,3.37,8.73,5.96,12.04s5.73,5.83,9.42,7.58c3.69,1.74,7.82,2.61,12.38,2.61,3.79,0,7.28-.54,10.46-1.62,3.18-1.08,5.91-2.59,8.19-4.54,2.28-1.95,4.09-4.31,5.42-7.08,1.33-2.77,2.05-5.82,2.15-9.15l.08-2h-24.07v-17.46h46.61v14.15c0,7.44-1.14,14.13-3.42,20.07Z"/>
        </g>
        <g>
          <path class="cls-2" d="M905.69,408.87h-7.89c-.62-5.01-2.53-8.75-5.75-11.21-3.21-2.46-7.05-3.69-11.51-3.69-5.57,0-10.13,1.94-13.68,5.81-3.55,3.88-5.33,9.75-5.33,17.63v9.6c0,7.54,1.62,13.39,4.85,17.56,3.23,4.17,7.89,6.25,13.98,6.25,5.11,0,9.34-1.44,12.71-4.31,3.37-2.88,5.05-6.59,5.05-11.14v-6.92h-18.37v-7.29h26.12v14.21c0,1.85-.25,3.75-.76,5.7s-1.38,3.98-2.63,6.07c-1.25,2.09-2.82,3.94-4.71,5.54-1.89,1.6-4.33,2.91-7.31,3.92-2.98,1.02-6.32,1.52-10.01,1.52-8.77,0-15.44-2.74-20.03-8.21-4.58-5.48-6.88-13.11-6.88-22.89v-9.6c0-9.69,2.46-17.24,7.38-22.64,4.92-5.4,11.52-8.1,19.8-8.1,7.48,0,13.4,2.11,17.77,6.32,4.37,4.22,6.77,9.51,7.2,15.87Z"/>
          <path class="cls-2" d="M1136.01,388.1c3.63,0,6.88.56,9.74,1.68,2.86,1.12,5.14,2.63,6.83,4.52,1.69,1.89,2.97,4.02,3.83,6.39.86,2.37,1.29,4.92,1.29,7.66,0,5.14-1.23,9.28-3.69,12.41-2.46,3.14-5.49,5.37-9.09,6.69l14.03,29.21h-9.23l-12.74-27.55h-17.3v27.55h-8.08v-68.57h24.41ZM1119.67,421.92h15c4.86,0,8.54-1.12,11.03-3.37s3.74-5.45,3.74-9.6c0-4.43-1.28-7.81-3.83-10.15-2.55-2.34-6.08-3.51-10.57-3.51h-15.37v26.63Z"/>
          <path class="cls-2" d="M1361.1,427.88v-10.29c0-9.6,2.46-17.15,7.38-22.66,4.92-5.51,11.51-8.26,19.77-8.26s14.84,2.74,19.75,8.21c4.91,5.48,7.36,13.04,7.36,22.7v10.29c0,9.6-2.47,17.04-7.41,22.31-4.94,5.28-11.56,7.91-19.87,7.91s-14.92-2.64-19.75-7.91c-4.83-5.28-7.24-12.71-7.24-22.31ZM1369.09,417.59v10.29c0,3.82.49,7.21,1.48,10.2.98,2.99,2.35,5.39,4.08,7.22,1.74,1.83,3.74,3.21,6,4.13s4.78,1.38,7.55,1.38,5.26-.46,7.57-1.38c2.31-.92,4.34-2.3,6.12-4.13,1.77-1.83,3.13-4.24,4.08-7.22.95-2.98,1.43-6.38,1.43-10.2v-10.29c0-7.57-1.78-13.4-5.33-17.49-3.55-4.09-8.18-6.14-13.87-6.14s-10.22,2.03-13.77,6.09c-3.55,4.06-5.33,9.91-5.33,17.54Z"/>
          <path class="cls-2" d="M1628.29,388.1v44.76c0,5.45,1.6,9.8,4.8,13.06,3.2,3.26,7.52,4.89,12.97,4.89s9.69-1.63,12.92-4.89c3.23-3.26,4.85-7.61,4.85-13.06v-44.76h7.98v44.76c0,7.54-2.37,13.63-7.11,18.27-4.74,4.65-10.95,6.97-18.64,6.97-5.05,0-9.52-1.05-13.43-3.16-3.91-2.11-6.93-5.1-9.07-8.97-2.14-3.88-3.21-8.31-3.21-13.29v-44.58h7.94Z"/>
          <path class="cls-2" d="M1879.36,388.1h24.6c6.46,0,11.67,1.94,15.64,5.81,3.97,3.88,5.95,8.98,5.95,15.32s-1.98,11.43-5.95,15.27c-3.97,3.85-9.18,5.77-15.64,5.77h-16.52v26.4h-8.08v-68.57ZM1887.44,395.3v27.78h10.75c2.12,0,4-.08,5.63-.25,1.63-.17,3.2-.43,4.71-.78s2.77-.86,3.78-1.52,1.92-1.51,2.72-2.54c.8-1.03,1.38-2.27,1.73-3.71s.53-3.12.53-5.03c0-4.43-1.18-7.86-3.55-10.29-2.37-2.43-5.72-3.65-10.06-3.65h-16.24Z"/>
        </g>
      </g>
    </g>
  </g>
</svg>